<?xml version="1.0" encoding="UTF-8"?>
<!DOCTYPE svg PUBLIC "-//W3C//DTD SVG 1.1//EN" "http://www.w3.org/Graphics/SVG/1.1/DTD/svg11.dtd">
<svg xmlns="http://www.w3.org/2000/svg" version="1.1" width="500px" height="184px" style="shape-rendering:geometricPrecision; text-rendering:geometricPrecision; image-rendering:optimizeQuality; fill-rule:evenodd; clip-rule:evenodd" xmlns:xlink="http://www.w3.org/1999/xlink">
<g><path style="opacity:0.598" fill="#154078" d="M 276.5,2.5 C 272.057,7.20727 267.724,12.0406 263.5,17C 261.934,17.2997 260.601,16.7997 259.5,15.5C 263.609,9.22683 269.109,4.56016 276,1.5C 276.399,1.72845 276.565,2.06178 276.5,2.5 Z"/></g>
<g><path style="opacity:0.962" fill="#3961a8" d="M 199.5,34.5 C 198.398,38.7471 198.232,43.0804 199,47.5C 201.86,41.7802 204.693,36.1136 207.5,30.5C 216.098,36.7612 224.098,43.7612 231.5,51.5C 230.683,53.9686 230.183,56.6353 230,59.5C 228.686,58.6872 227.519,57.6872 226.5,56.5C 225.893,56.6236 225.56,56.9569 225.5,57.5C 221.036,53.5368 216.702,49.3702 212.5,45C 211.5,44.3333 210.5,44.3333 209.5,45C 208.614,46.6147 207.614,48.1147 206.5,49.5C 201.444,55.8901 196.777,62.5568 192.5,69.5C 191.833,67.5 191.167,65.5 190.5,63.5C 190.593,57.1373 190.26,50.8039 189.5,44.5C 180.649,46.0037 171.982,48.337 163.5,51.5C 162.203,53.9732 162.203,56.3066 163.5,58.5C 165.861,58.3259 168.194,57.9926 170.5,57.5C 171.38,66.8125 172.213,76.1459 173,85.5C 180.486,93.7706 183.152,103.437 181,114.5C 179.493,119.51 177.993,124.51 176.5,129.5C 177.274,133.465 177.607,137.465 177.5,141.5C 181.833,140.833 186.167,140.167 190.5,139.5C 191.5,139.5 192.5,139.5 193.5,139.5C 194.167,128.5 194.833,117.5 195.5,106.5C 206.691,111.928 217.691,117.595 228.5,123.5C 228.062,123.435 227.728,123.601 227.5,124C 228.416,124.374 229.25,124.874 230,125.5C 230.144,128.025 230.31,130.358 230.5,132.5C 220.941,127.886 211.274,123.553 201.5,119.5C 201.264,122.609 201.597,125.609 202.5,128.5C 202.5,134.5 202.5,140.5 202.5,146.5C 191.806,147.616 181.139,148.949 170.5,150.5C 170.947,145.949 170.281,141.616 168.5,137.5C 153.233,150.585 137.233,151.752 120.5,141C 113.457,133.205 109.957,124.039 110,113.5C 106.719,115.109 104.553,117.609 103.5,121C 105.452,128.649 107.786,136.149 110.5,143.5C 112.006,149.858 113.673,156.192 115.5,162.5C 115.253,163.713 114.586,164.38 113.5,164.5C 108.415,165.117 103.415,166.117 98.5,167.5C 95.6736,164.952 96.0069,162.785 99.5,161C 96.2062,161.365 92.8728,161.865 89.5,162.5C 92.7649,160.968 96.0982,159.635 99.5,158.5C 101.948,158.915 103.281,157.915 103.5,155.5C 100.472,142.053 97.1382,128.719 93.5,115.5C 101.494,110.839 107.827,104.506 112.5,96.5C 125.899,77.6641 122.566,62.4974 102.5,51C 98.8387,49.4075 95.172,48.2408 91.5,47.5C 93.1439,47.7135 94.6439,47.3802 96,46.5C 96.4966,44.1902 96.6633,41.8568 96.5,39.5C 118.848,44.5083 130.014,58.5083 130,81.5C 137.569,77.152 145.735,75.152 154.5,75.5C 157.008,77.554 160.008,78.554 163.5,78.5C 163.5,74.8333 163.5,71.1667 163.5,67.5C 158.957,68.2925 154.624,69.7925 150.5,72C 149.748,72.6708 149.414,73.5041 149.5,74.5C 148.5,74.5 147.5,74.5 146.5,74.5C 146.448,70.8019 146.114,67.1352 145.5,63.5C 148.455,62.8413 151.455,62.5079 154.5,62.5C 154.822,56.642 154.489,50.9753 153.5,45.5C 168.329,40.3349 183.329,35.3349 198.5,30.5C 199.429,31.6888 199.762,33.0222 199.5,34.5 Z"/></g>
<g><path style="opacity:0.923" fill="#1d2d60" d="M 207.5,30.5 C 204.693,36.1136 201.86,41.7802 199,47.5C 198.232,43.0804 198.398,38.7471 199.5,34.5C 201.883,32.6418 204.55,31.3084 207.5,30.5 Z"/></g>
<g><path style="opacity:0.96" fill="#346db0" d="M 393.5,68.5 C 395.306,69.0241 396.972,69.6908 398.5,70.5C 397.5,70.5 396.5,70.5 395.5,70.5C 395.5,72.1667 395.5,73.8333 395.5,75.5C 397.199,75.3398 398.866,75.5065 400.5,76C 396.312,76.1762 392.312,76.6762 388.5,77.5C 383.748,78.1832 379.748,80.1832 376.5,83.5C 361.971,93.6095 358.804,106.61 367,122.5C 374.237,129.99 383.07,132.656 393.5,130.5C 394.833,132.167 396.167,133.833 397.5,135.5C 392.894,137.876 387.894,138.876 382.5,138.5C 382.232,140.099 382.566,141.432 383.5,142.5C 383.963,145.482 384.296,148.482 384.5,151.5C 370.813,149.274 357.146,146.941 343.5,144.5C 343.529,138.79 343.029,133.123 342,127.5C 340.167,130.5 338.333,133.5 336.5,136.5C 333.752,131.334 330.752,126.334 327.5,121.5C 326.566,124.267 325.9,127.1 325.5,130C 325.316,131.376 324.649,132.209 323.5,132.5C 323.306,125.639 323.639,118.806 324.5,112C 324.333,110.833 324.167,109.667 324,108.5C 323.768,109.737 323.268,110.737 322.5,111.5C 323.384,106.196 324.051,100.863 324.5,95.5C 325.077,94.2267 325.743,94.2267 326.5,95.5C 329.512,102.188 332.512,108.855 335.5,115.5C 336.072,116.973 336.905,118.307 338,119.5C 339.667,115.167 341.333,110.833 343,106.5C 343.697,104.416 344.864,102.749 346.5,101.5C 348.564,113.444 350.397,125.444 352,137.5C 356.389,138.675 360.889,139.341 365.5,139.5C 367.948,140.473 370.615,140.806 373.5,140.5C 373.785,138.712 373.452,137.045 372.5,135.5C 358.659,127.477 353.159,115.477 356,99.5C 356.906,96.6902 358.073,94.0236 359.5,91.5C 360.11,90.609 360.443,89.609 360.5,88.5C 363.604,86.3655 364.937,83.3655 364.5,79.5C 362.832,67.4919 361.165,55.4919 359.5,43.5C 354.167,43.5 348.833,43.5 343.5,43.5C 343.5,44.8333 343.5,46.1667 343.5,47.5C 341.538,54.5933 340.205,61.9266 339.5,69.5C 338.732,70.2625 338.232,71.2625 338,72.5C 336.176,64.2144 334.676,55.8811 333.5,47.5C 326.5,47.5 319.5,47.5 312.5,47.5C 316.312,46.6762 320.312,46.1762 324.5,46C 323.565,43.6194 323.232,41.1194 323.5,38.5C 327.511,38.4984 331.178,37.3317 334.5,35C 345.161,34.5002 355.828,34.3335 366.5,34.5C 368.599,48.1658 370.766,61.8325 373,75.5C 379.089,71.0998 385.922,68.7665 393.5,68.5 Z"/></g>
<g><path style="opacity:0.955" fill="#3e5ca4" d="M 96.5,39.5 C 96.6633,41.8568 96.4966,44.1902 96,46.5C 94.6439,47.3802 93.1439,47.7135 91.5,47.5C 70.1477,45.5664 50.481,50.2331 32.5,61.5C 29.5266,61.9651 28.3599,63.6318 29,66.5C 32.7081,72.7506 36.5414,78.9173 40.5,85C 43.4717,84.9477 46.3051,84.1144 49,82.5C 61.7523,108.061 73.7523,134.061 85,160.5C 86.049,162.107 87.549,162.773 89.5,162.5C 92.8728,161.865 96.2062,161.365 99.5,161C 96.0069,162.785 95.6736,164.952 98.5,167.5C 93.343,169.668 88.0097,171.668 82.5,173.5C 74.5625,157.292 66.8958,140.958 59.5,124.5C 55.1146,114.061 50.448,103.728 45.5,93.5C 43.0207,95.0761 40.354,96.0761 37.5,96.5C 34.0825,90.6631 30.4158,84.9964 26.5,79.5C 23.2603,72.9252 19.5936,66.5918 15.5,60.5C 34.9221,46.2167 56.7554,38.5501 81,37.5C 86.4107,37.3793 91.5774,38.046 96.5,39.5 Z"/></g>
<g><path style="opacity:0.984" fill="#1d2e60" d="M 235.5,53.5 C 236.973,52.928 238.307,52.0946 239.5,51C 237.21,49.2228 235.543,47.0562 234.5,44.5C 237.13,43.5722 239.796,42.5722 242.5,41.5C 245.082,42.4107 247.082,44.0774 248.5,46.5C 244.459,49.6104 240.293,52.6104 236,55.5C 235.536,54.9056 235.369,54.2389 235.5,53.5 Z"/></g>
<g><path style="opacity:1" fill="#c39f18" d="M 360.5,88.5 C 359.295,74.7829 357.628,61.1163 355.5,47.5C 351.5,47.5 347.5,47.5 343.5,47.5C 343.5,46.1667 343.5,44.8333 343.5,43.5C 348.833,43.5 354.167,43.5 359.5,43.5C 361.165,55.4919 362.832,67.4919 364.5,79.5C 364.937,83.3655 363.604,86.3655 360.5,88.5 Z"/></g>
<g><path style="opacity:1" fill="#c29e17" d="M 225.5,57.5 C 226.81,59.1477 228.143,60.8144 229.5,62.5C 228.479,64.188 227.145,65.5213 225.5,66.5C 220.446,60.9426 215.113,55.4426 209.5,50C 208.552,49.5172 207.552,49.3505 206.5,49.5C 207.614,48.1147 208.614,46.6147 209.5,45C 210.5,44.3333 211.5,44.3333 212.5,45C 216.702,49.3702 221.036,53.5368 225.5,57.5 Z"/></g>
<g><path style="opacity:1" fill="#c29e17" d="M 91.5,47.5 C 95.172,48.2408 98.8387,49.4075 102.5,51C 122.566,62.4974 125.899,77.6641 112.5,96.5C 121.144,73.9526 113.81,59.1192 90.5,52C 81.5,51.3333 72.5,51.3333 63.5,52C 52.91,54.4756 42.5766,57.6422 32.5,61.5C 50.481,50.2331 70.1477,45.5664 91.5,47.5 Z"/></g>
<g><path style="opacity:1" fill="#bf9d1e" d="M 190.5,63.5 C 190.198,66.0593 190.532,68.3926 191.5,70.5C 190.343,72.1376 189.176,73.8043 188,75.5C 186.918,66.5162 186.085,57.5162 185.5,48.5C 178.256,50.4163 170.923,52.083 163.5,53.5C 163.5,55.1667 163.5,56.8333 163.5,58.5C 162.203,56.3066 162.203,53.9732 163.5,51.5C 171.982,48.337 180.649,46.0037 189.5,44.5C 190.26,50.8039 190.593,57.1373 190.5,63.5 Z"/></g>
<g><path style="opacity:1" fill="#fbc90c" d="M 343.5,47.5 C 347.5,47.5 351.5,47.5 355.5,47.5C 357.628,61.1163 359.295,74.7829 360.5,88.5C 360.443,89.609 360.11,90.609 359.5,91.5C 358.504,91.4142 357.671,91.7476 357,92.5C 348.213,108.42 350.047,122.92 362.5,136C 364.5,137 366.5,138 368.5,139C 367.552,139.483 366.552,139.649 365.5,139.5C 360.889,139.341 356.389,138.675 352,137.5C 350.397,125.444 348.564,113.444 346.5,101.5C 346.631,100.761 346.464,100.094 346,99.5C 341.636,103.553 338.803,108.553 337.5,114.5C 337.043,115.298 336.376,115.631 335.5,115.5C 332.512,108.855 329.512,102.188 326.5,95.5C 325.743,94.2267 325.077,94.2267 324.5,95.5C 322.224,95.7565 321.057,97.0898 321,99.5C 319.506,107.461 318.339,115.461 317.5,123.5C 311.474,123.051 305.474,122.385 299.5,121.5C 300.343,115.442 301.51,109.442 303,103.5C 306.016,100.651 308.85,97.6511 311.5,94.5C 308.067,92.5836 306.067,89.7503 305.5,86C 307.233,74.4342 309.233,62.9342 311.5,51.5C 317.5,51.5 323.5,51.5 329.5,51.5C 330.89,60.1739 332.39,68.8406 334,77.5C 335.587,78.727 336.921,78.3937 338,76.5C 338.977,74.26 339.477,71.9267 339.5,69.5C 340.205,61.9266 341.538,54.5933 343.5,47.5 Z"/></g>
<g><path style="opacity:1" fill="#fac80c" d="M 191.5,70.5 C 192.167,70.5 192.5,70.1667 192.5,69.5C 196.777,62.5568 201.444,55.8901 206.5,49.5C 207.552,49.3505 208.552,49.5172 209.5,50C 215.113,55.4426 220.446,60.9426 225.5,66.5C 218.388,74.4004 211.055,82.067 203.5,89.5C 200.449,91.3829 200.115,93.5495 202.5,96C 209.914,98.8046 217.247,101.805 224.5,105C 231.482,115.994 241.482,122.161 254.5,123.5C 255.08,127.649 254.414,131.316 252.5,134.5C 244.5,130.833 236.5,127.167 228.5,123.5C 217.691,117.595 206.691,111.928 195.5,106.5C 194.833,105.167 194.167,105.167 193.5,106.5C 192.542,106.953 191.708,107.619 191,108.5C 190.5,118.828 190.334,129.161 190.5,139.5C 186.167,140.167 181.833,140.833 177.5,141.5C 177.607,137.465 177.274,133.465 176.5,129.5C 177.993,124.51 179.493,119.51 181,114.5C 183.152,103.437 180.486,93.7706 173,85.5C 172.213,76.1459 171.38,66.8125 170.5,57.5C 168.194,57.9926 165.861,58.3259 163.5,58.5C 163.5,56.8333 163.5,55.1667 163.5,53.5C 170.923,52.083 178.256,50.4163 185.5,48.5C 186.085,57.5162 186.918,66.5162 188,75.5C 189.176,73.8043 190.343,72.1376 191.5,70.5 Z"/></g>
<g><path style="opacity:1" fill="#bd9d1f" d="M 312.5,47.5 C 319.5,47.5 326.5,47.5 333.5,47.5C 334.676,55.8811 336.176,64.2144 338,72.5C 338.232,71.2625 338.732,70.2625 339.5,69.5C 339.477,71.9267 338.977,74.26 338,76.5C 336.921,78.3937 335.587,78.727 334,77.5C 332.39,68.8406 330.89,60.1739 329.5,51.5C 323.5,51.5 317.5,51.5 311.5,51.5C 311.232,49.901 311.566,48.5676 312.5,47.5 Z"/></g>
<g><path style="opacity:1" fill="#fcc909" d="M 112.5,96.5 C 107.827,104.506 101.494,110.839 93.5,115.5C 91.2497,115.951 89.9164,117.285 89.5,119.5C 92.8388,132.537 96.1721,145.537 99.5,158.5C 96.0982,159.635 92.7649,160.968 89.5,162.5C 87.549,162.773 86.049,162.107 85,160.5C 73.7523,134.061 61.7523,108.061 49,82.5C 46.3051,84.1144 43.4717,84.9477 40.5,85C 36.5414,78.9173 32.7081,72.7506 29,66.5C 28.3599,63.6318 29.5266,61.9651 32.5,61.5C 42.5766,57.6422 52.91,54.4756 63.5,52C 72.5,51.3333 81.5,51.3333 90.5,52C 113.81,59.1192 121.144,73.9526 112.5,96.5 Z M 90.5,82.5 C 94.3452,84.6027 95.3452,87.6027 93.5,91.5C 92.304,88.5786 91.304,85.5786 90.5,82.5 Z"/></g>
<g><path style="opacity:0.912" fill="#3272b3" d="M 403.5,42.5 C 418.113,45.756 432.78,48.756 447.5,51.5C 447.433,52.9587 447.766,54.2921 448.5,55.5C 447.736,59.2179 448.236,62.8845 450,66.5C 451.631,62.3121 452.464,57.9788 452.5,53.5C 465.539,56.3432 478.539,59.3432 491.5,62.5C 480.062,99.6376 467.729,136.304 454.5,172.5C 446.054,169.128 437.388,166.128 428.5,163.5C 427.803,159.623 427.136,155.79 426.5,152C 418.411,151.323 410.411,150.156 402.5,148.5C 401.526,146.257 401.192,143.924 401.5,141.5C 401.975,138.918 401.308,136.918 399.5,135.5C 398.833,135.5 398.167,135.5 397.5,135.5C 396.167,133.833 394.833,132.167 393.5,130.5C 400.391,127.875 406.057,123.542 410.5,117.5C 418.639,107.462 419.473,96.7952 413,85.5C 406.317,78.6142 398.15,75.9476 388.5,77.5C 392.312,76.6762 396.312,76.1762 400.5,76C 398.866,75.5065 397.199,75.3398 395.5,75.5C 395.5,73.8333 395.5,72.1667 395.5,70.5C 396.5,70.5 397.5,70.5 398.5,70.5C 402.167,71.1667 405.833,71.8333 409.5,72.5C 409.67,71.1779 409.337,70.0113 408.5,69C 406.899,68.7266 405.399,68.2266 404,67.5C 403.5,59.1733 403.334,50.84 403.5,42.5 Z"/></g>
<g><path style="opacity:1" fill="#c29f16" d="M 449.5,102.5 C 448.945,104.729 447.611,106.395 445.5,107.5C 441.952,92.8803 438.619,78.2136 435.5,63.5C 427.239,61.4477 418.905,59.7811 410.5,58.5C 410.5,56.8333 410.5,55.1667 410.5,53.5C 420.091,55.1846 429.591,57.1846 439,59.5C 442.62,73.3618 445.62,87.3618 448,101.5C 448.383,102.056 448.883,102.389 449.5,102.5 Z"/></g>
<g><path style="opacity:0.76" fill="#1e2f62" d="M 452.5,53.5 C 452.464,57.9788 451.631,62.3121 450,66.5C 448.236,62.8845 447.736,59.2179 448.5,55.5C 450.062,55.2671 451.395,54.6005 452.5,53.5 Z"/></g>
<g><path style="opacity:1" fill="#fbc90e" d="M 410.5,58.5 C 418.905,59.7811 427.239,61.4477 435.5,63.5C 438.619,78.2136 441.952,92.8803 445.5,107.5C 447.611,106.395 448.945,104.729 449.5,102.5C 451.322,90.8573 453.989,79.5239 457.5,68.5C 463.5,69.8333 469.5,71.1667 475.5,72.5C 467.504,99.6562 459.004,126.656 450,153.5C 449.028,155.768 447.695,157.768 446,159.5C 444.234,158.767 442.401,158.433 440.5,158.5C 438.064,158.683 435.897,158.016 434,156.5C 433.5,144.171 433.333,131.838 433.5,119.5C 433.5,113.833 433.5,108.167 433.5,102.5C 433.44,101.957 433.107,101.624 432.5,101.5C 431.186,102.313 430.019,103.313 429,104.5C 426.723,117.161 424.557,129.828 422.5,142.5C 420.5,142.5 418.5,142.5 416.5,142.5C 413.873,141.908 411.206,141.575 408.5,141.5C 408.917,137.165 409.417,132.832 410,128.5C 427.38,112.046 428.88,94.3792 414.5,75.5C 415.375,71.2127 415.708,66.8794 415.5,62.5C 412.05,63.2436 410.384,61.9103 410.5,58.5 Z"/></g>
<g><path style="opacity:0.827" fill="#134680" d="M 153.5,45.5 C 154.489,50.9753 154.822,56.642 154.5,62.5C 151.455,62.5079 148.455,62.8413 145.5,63.5C 145.5,58.5 145.5,53.5 145.5,48.5C 148.406,48.0435 151.072,47.0435 153.5,45.5 Z"/></g>
<g><path style="opacity:0.902" fill="#1a4985" d="M 403.5,42.5 C 403.334,50.84 403.5,59.1733 404,67.5C 405.399,68.2266 406.899,68.7266 408.5,69C 409.337,70.0113 409.67,71.1779 409.5,72.5C 405.833,71.8333 402.167,71.1667 398.5,70.5C 396.972,69.6908 395.306,69.0241 393.5,68.5C 393.169,61.1365 393.503,53.8032 394.5,46.5C 397.148,44.3418 400.148,43.0084 403.5,42.5 Z"/></g>
<g><path style="opacity:0.997" fill="#1f2d60" d="M 154.5,75.5 C 153.393,73.1534 151.726,72.82 149.5,74.5C 149.414,73.5041 149.748,72.6708 150.5,72C 154.624,69.7925 158.957,68.2925 163.5,67.5C 163.5,71.1667 163.5,74.8333 163.5,78.5C 160.008,78.554 157.008,77.554 154.5,75.5 Z"/></g>
<g><path style="opacity:1" fill="#6c7a74" d="M 190.5,63.5 C 191.167,65.5 191.833,67.5 192.5,69.5C 192.5,70.1667 192.167,70.5 191.5,70.5C 190.532,68.3926 190.198,66.0593 190.5,63.5 Z"/></g>
<g><path style="opacity:0.965" fill="#405ba3" d="M 90.5,105.5 C 86.7923,95.3745 83.459,85.0412 80.5,74.5C 86.8783,71.7357 93.2116,71.9023 99.5,75C 105.643,81.5972 106.143,88.7639 101,96.5C 97.8967,100.114 94.3967,103.114 90.5,105.5 Z M 90.5,82.5 C 94.3452,84.6027 95.3452,87.6027 93.5,91.5C 92.304,88.5786 91.304,85.5786 90.5,82.5 Z"/></g>
<g><path style="opacity:1" fill="#c09e1a" d="M 388.5,77.5 C 398.15,75.9476 406.317,78.6142 413,85.5C 419.473,96.7952 418.639,107.462 410.5,117.5C 417.894,100.172 412.894,88.005 395.5,81C 392.5,80.3333 389.5,80.3333 386.5,81C 383.223,82.1434 379.89,82.9767 376.5,83.5C 379.748,80.1832 383.748,78.1832 388.5,77.5 Z"/></g>
<g><path style="opacity:0.908" fill="#164078" d="M 15.5,60.5 C 19.5936,66.5918 23.2603,72.9252 26.5,79.5C 24.2063,81.653 21.5396,83.3197 18.5,84.5C 14.6169,79.4242 11.2836,73.9242 8.5,68C 10.3201,65.0135 12.6534,62.5135 15.5,60.5 Z"/></g>
<g><path style="opacity:0.875" fill="#797c6c" d="M 93.5,91.5 C 95.3452,87.6027 94.3452,84.6027 90.5,82.5C 88.8958,81.713 88.2291,80.3797 88.5,78.5C 98.8342,79.1814 101.167,83.8481 95.5,92.5C 94.056,93.981 93.3894,93.6477 93.5,91.5 Z"/></g>
<g><path style="opacity:1" fill="#f8c70e" d="M 410.5,117.5 C 406.057,123.542 400.391,127.875 393.5,130.5C 383.07,132.656 374.237,129.99 367,122.5C 358.804,106.61 361.971,93.6095 376.5,83.5C 379.89,82.9767 383.223,82.1434 386.5,81C 389.5,80.3333 392.5,80.3333 395.5,81C 412.894,88.005 417.894,100.172 410.5,117.5 Z"/></g>
<g><path style="opacity:1" fill="#798671" d="M 387.5,83.5 C 388.946,82.3871 390.613,82.2204 392.5,83C 391.956,83.7172 391.289,84.2172 390.5,84.5C 389.791,83.596 388.791,83.2627 387.5,83.5 Z"/></g>
<g><path style="opacity:1" fill="#c39e16" d="M 167.5,126.5 C 175.793,97.1244 164.793,84.4578 134.5,88.5C 136.649,86.2542 139.316,84.7542 142.5,84C 157.272,80.803 167.772,85.9697 174,99.5C 176.001,109.633 173.835,118.633 167.5,126.5 Z"/></g>
<g><path style="opacity:1" fill="#3c68aa" d="M 387.5,83.5 C 388.791,83.2627 389.791,83.596 390.5,84.5C 385.019,89.1945 385.353,93.6945 391.5,98C 398.295,99.6914 402.462,97.1914 404,90.5C 406.78,97.6174 404.946,103.284 398.5,107.5C 384.055,111.057 377.055,105.39 377.5,90.5C 379.784,86.6896 383.117,84.3562 387.5,83.5 Z"/></g>
<g><path style="opacity:0.973" fill="#3567ac" d="M 276.5,2.5 C 278.074,2.93709 279.241,3.93709 280,5.5C 285.364,13.3655 290.53,21.3655 295.5,29.5C 288.198,34.4894 280.531,38.9894 272.5,43C 280.957,43.7569 288.29,46.9235 294.5,52.5C 296.075,55.5821 298.242,58.2488 301,60.5C 302.955,53.6509 304.122,46.6509 304.5,39.5C 310.645,38.5098 316.978,38.1765 323.5,38.5C 323.232,41.1194 323.565,43.6194 324.5,46C 320.312,46.1762 316.312,46.6762 312.5,47.5C 311.566,48.5676 311.232,49.901 311.5,51.5C 309.233,62.9342 307.233,74.4342 305.5,86C 306.067,89.7503 308.067,92.5836 311.5,94.5C 308.85,97.6511 306.016,100.651 303,103.5C 301.51,109.442 300.343,115.442 299.5,121.5C 305.474,122.385 311.474,123.051 317.5,123.5C 319.124,125.137 320.124,124.803 320.5,122.5C 321.169,118.815 321.835,115.148 322.5,111.5C 323.268,110.737 323.768,109.737 324,108.5C 324.167,109.667 324.333,110.833 324.5,112C 323.639,118.806 323.306,125.639 323.5,132.5C 312.474,131.353 301.474,130.02 290.5,128.5C 291.336,122.835 291.836,117.168 292,111.5C 283.953,115.683 275.453,118.349 266.5,119.5C 266.216,121.415 266.549,123.081 267.5,124.5C 267.827,133.682 267.493,142.682 266.5,151.5C 254.5,145.167 242.5,138.833 230.5,132.5C 230.31,130.358 230.144,128.025 230,125.5C 229.25,124.874 228.416,124.374 227.5,124C 227.728,123.601 228.062,123.435 228.5,123.5C 236.5,127.167 244.5,130.833 252.5,134.5C 253.937,135.725 255.604,136.725 257.5,137.5C 258.496,131.537 258.829,125.537 258.5,119.5C 245.486,118.162 235.486,111.996 228.5,101C 220.747,97.6377 212.913,94.4711 205,91.5C 203.97,91.1639 203.47,90.4972 203.5,89.5C 211.055,82.067 218.388,74.4004 225.5,66.5C 227.145,65.5213 228.479,64.188 229.5,62.5C 228.143,60.8144 226.81,59.1477 225.5,57.5C 225.56,56.9569 225.893,56.6236 226.5,56.5C 227.519,57.6872 228.686,58.6872 230,59.5C 230.183,56.6353 230.683,53.9686 231.5,51.5C 233.062,51.7329 234.395,52.3995 235.5,53.5C 235.369,54.2389 235.536,54.9056 236,55.5C 240.293,52.6104 244.459,49.6104 248.5,46.5C 247.082,44.0774 245.082,42.4107 242.5,41.5C 239.796,42.5722 237.13,43.5722 234.5,44.5C 242.459,34.5384 250.793,24.8717 259.5,15.5C 260.601,16.7997 261.934,17.2997 263.5,17C 267.724,12.0406 272.057,7.20727 276.5,2.5 Z M 222.5,82.5 C 223.629,84.6282 223.796,86.9615 223,89.5C 221.391,88.8534 219.891,88.02 218.5,87C 220.041,85.6288 221.375,84.1288 222.5,82.5 Z M 256.5,73.5 C 258.5,73.5 260.5,73.5 262.5,73.5C 259.835,76.3347 257.335,79.3347 255,82.5C 254.207,79.2587 254.707,76.2587 256.5,73.5 Z"/></g>
<g><path style="opacity:1" fill="#c49f11" d="M 294.5,99.5 C 294.586,98.5041 294.252,97.6708 293.5,97C 289.606,93.5956 285.606,90.4289 281.5,87.5C 283.484,82.998 286.151,82.498 289.5,86C 292.683,89.0155 295.683,92.1822 298.5,95.5C 297.479,97.188 296.145,98.5213 294.5,99.5 Z"/></g>
<g><path style="opacity:1" fill="#203367" d="M 297.5,70.5 C 298.497,70.4701 299.164,70.9701 299.5,72C 298.955,75.1868 298.289,78.3535 297.5,81.5C 295.5,80.1667 293.833,78.5 292.5,76.5C 294.19,74.4807 295.856,72.4807 297.5,70.5 Z"/></g>
<g><path style="opacity:1" fill="#f9c80f" d="M 288.5,67.5 C 281.167,75.5 273.833,83.5 266.5,91.5C 263.198,92.9785 263.032,94.3118 266,95.5C 271.092,95.2026 275.259,93.2026 278.5,89.5C 278.973,88.0937 279.973,87.427 281.5,87.5C 285.606,90.4289 289.606,93.5956 293.5,97C 294.252,97.6708 294.586,98.5041 294.5,99.5C 282.812,108.669 269.479,112.503 254.5,111C 237.26,105.363 230.093,93.5302 233,75.5C 235.036,68.3914 239.203,63.0581 245.5,59.5C 248.425,59.5402 251.091,58.7068 253.5,57C 267.31,53.997 278.977,57.497 288.5,67.5 Z M 256.5,73.5 C 258.5,73.5 260.5,73.5 262.5,73.5C 259.835,76.3347 257.335,79.3347 255,82.5C 254.207,79.2587 254.707,76.2587 256.5,73.5 Z"/></g>
<g><path style="opacity:0.932" fill="#3d69ab" d="M 255.5,91.5 C 253.61,91.7035 252.11,91.0368 251,89.5C 247.236,84.0195 246.736,78.3528 249.5,72.5C 256.531,63.1211 264.531,62.1211 273.5,69.5C 267.492,76.864 261.492,84.1974 255.5,91.5 Z M 256.5,73.5 C 258.5,73.5 260.5,73.5 262.5,73.5C 259.835,76.3347 257.335,79.3347 255,82.5C 254.207,79.2587 254.707,76.2587 256.5,73.5 Z"/></g>
<g><path style="opacity:0.705" fill="#757b71" d="M 262.5,73.5 C 260.5,73.5 258.5,73.5 256.5,73.5C 258.343,69.9908 261.343,68.6574 265.5,69.5C 265.912,71.9726 264.912,73.3059 262.5,73.5 Z"/></g>
<g><path style="opacity:1" fill="#c39f16" d="M 288.5,67.5 C 278.977,57.497 267.31,53.997 253.5,57C 251.091,58.7068 248.425,59.5402 245.5,59.5C 248.102,57.1904 251.102,55.3571 254.5,54C 268.739,49.7368 281.239,52.5702 292,62.5C 291.923,64.7715 290.757,66.4382 288.5,67.5 Z"/></g>
<g><path style="opacity:0.946" fill="#18427b" d="M 304.5,39.5 C 304.122,46.6509 302.955,53.6509 301,60.5C 298.242,58.2488 296.075,55.5821 294.5,52.5C 294.998,49.5131 295.498,46.5131 296,43.5C 298.659,41.7535 301.492,40.4202 304.5,39.5 Z"/></g>
<g><path style="opacity:1" fill="#f3c519" d="M 270.5,20.5 C 271.675,20.281 272.675,20.6143 273.5,21.5C 275.552,24.5355 277.552,27.5355 279.5,30.5C 272.193,34.1534 264.86,37.8201 257.5,41.5C 256.112,40.4091 255.612,39.0758 256,37.5C 260.851,31.762 265.685,26.0953 270.5,20.5 Z"/></g>
<g><path style="opacity:1" fill="#c09e1b" d="M 279.5,30.5 C 277.552,27.5355 275.552,24.5355 273.5,21.5C 272.675,20.6143 271.675,20.281 270.5,20.5C 272.637,14.3495 275.471,14.0162 279,19.5C 281.029,22.0292 282.862,24.6959 284.5,27.5C 282.971,28.7629 281.305,29.7629 279.5,30.5 Z"/></g>
<g><path style="opacity:1" fill="#f9c70e" d="M 167.5,126.5 C 155.484,141.24 141.317,143.907 125,134.5C 112.652,116.027 115.819,100.694 134.5,88.5C 164.793,84.4578 175.793,97.1244 167.5,126.5 Z"/></g>
<g><path style="opacity:1" fill="#c39f17" d="M 249.5,72.5 C 246.736,78.3528 247.236,84.0195 251,89.5C 252.11,91.0368 253.61,91.7035 255.5,91.5C 253.684,92.6206 251.684,93.1206 249.5,93C 245.773,87.7571 244.607,81.9238 246,75.5C 246.422,73.5743 247.589,72.5743 249.5,72.5 Z"/></g>
<g><path style="opacity:1" fill="#aa973f" d="M 144.5,90.5 C 153.243,88.7943 153.576,89.7943 145.5,93.5C 145.953,92.5416 146.619,91.7083 147.5,91C 146.552,90.5172 145.552,90.3505 144.5,90.5 Z"/></g>
<g><path style="opacity:1" fill="#3c65a9" d="M 144.5,90.5 C 145.552,90.3505 146.552,90.5172 147.5,91C 146.619,91.7083 145.953,92.5416 145.5,93.5C 142.515,100.175 144.849,104.175 152.5,105.5C 154.557,105.564 156.223,104.898 157.5,103.5C 159.643,101.869 161.31,99.8693 162.5,97.5C 164.311,104.878 161.977,110.545 155.5,114.5C 140.856,118.181 134.189,112.514 135.5,97.5C 137.612,94.0585 140.612,91.7252 144.5,90.5 Z"/></g>
<g><path style="opacity:1" fill="#c5a011" d="M 203.5,89.5 C 203.47,90.4972 203.97,91.1639 205,91.5C 212.913,94.4711 220.747,97.6377 228.5,101C 235.486,111.996 245.486,118.162 258.5,119.5C 258.829,125.537 258.496,131.537 257.5,137.5C 255.604,136.725 253.937,135.725 252.5,134.5C 254.414,131.316 255.08,127.649 254.5,123.5C 241.482,122.161 231.482,115.994 224.5,105C 217.247,101.805 209.914,98.8046 202.5,96C 200.115,93.5495 200.449,91.3829 203.5,89.5 Z"/></g>
<g><path style="opacity:1" fill="#c5a016" d="M 278.5,89.5 C 275.259,93.2026 271.092,95.2026 266,95.5C 263.032,94.3118 263.198,92.9785 266.5,91.5C 266.735,92.0967 267.235,92.4301 268,92.5C 271.541,91.5738 275.041,90.5738 278.5,89.5 Z"/></g>
<g><path style="opacity:1" fill="#c39e17" d="M 80.5,74.5 C 83.459,85.0412 86.7923,95.3745 90.5,105.5C 89.7387,106.391 88.7387,107.058 87.5,107.5C 83.8549,97.7785 80.5216,87.9452 77.5,78C 77.9778,76.3576 78.9778,75.1909 80.5,74.5 Z"/></g>
<g><path style="opacity:0.877" fill="#0664a7" d="M 26.5,79.5 C 30.4158,84.9964 34.0825,90.6631 37.5,96.5C 35.1153,98.8838 33.1153,101.55 31.5,104.5C 30.6715,105.332 29.8382,104.999 29,103.5C 25.243,97.2598 21.743,90.9264 18.5,84.5C 21.5396,83.3197 24.2063,81.653 26.5,79.5 Z"/></g>
<g><path style="opacity:1" fill="#c39f16" d="M 377.5,90.5 C 377.055,105.39 384.055,111.057 398.5,107.5C 397.106,109.708 395.106,111.208 392.5,112C 379.377,114.208 373.211,108.708 374,95.5C 374.697,93.4156 375.864,91.7489 377.5,90.5 Z"/></g>
<g><path style="opacity:1" fill="#bd9e1e" d="M 162.5,97.5 C 161.31,99.8693 159.643,101.869 157.5,103.5C 156.79,100.115 157.956,97.7814 161,96.5C 161.765,96.5699 162.265,96.9033 162.5,97.5 Z"/></g>
<g><path style="opacity:1" fill="#c19d1a" d="M 135.5,97.5 C 134.189,112.514 140.856,118.181 155.5,114.5C 154.543,117.168 152.543,118.668 149.5,119C 136.354,120.521 130.521,114.687 132,101.5C 132.66,99.6763 133.827,98.343 135.5,97.5 Z"/></g>
<g><path style="opacity:1" fill="#caa30e" d="M 324.5,95.5 C 324.051,100.863 323.384,106.196 322.5,111.5C 321.835,115.148 321.169,118.815 320.5,122.5C 320.124,124.803 319.124,125.137 317.5,123.5C 318.339,115.461 319.506,107.461 321,99.5C 321.057,97.0898 322.224,95.7565 324.5,95.5 Z"/></g>
<g><path style="opacity:1" fill="#c29f17" d="M 359.5,91.5 C 358.073,94.0236 356.906,96.6902 356,99.5C 353.159,115.477 358.659,127.477 372.5,135.5C 373.452,137.045 373.785,138.712 373.5,140.5C 370.615,140.806 367.948,140.473 365.5,139.5C 366.552,139.649 367.552,139.483 368.5,139C 366.5,138 364.5,137 362.5,136C 350.047,122.92 348.213,108.42 357,92.5C 357.671,91.7476 358.504,91.4142 359.5,91.5 Z"/></g>
<g><path style="opacity:1" fill="#c8a108" d="M 193.5,106.5 C 193.5,117.5 193.5,128.5 193.5,139.5C 192.5,139.5 191.5,139.5 190.5,139.5C 190.334,129.161 190.5,118.828 191,108.5C 191.708,107.619 192.542,106.953 193.5,106.5 Z"/></g>
<g><path style="opacity:1" fill="#c6a114" d="M 433.5,102.5 C 431.926,104.102 431.259,106.102 431.5,108.5C 429.5,120.166 427.5,131.832 425.5,143.5C 422.287,143.81 419.287,143.477 416.5,142.5C 418.5,142.5 420.5,142.5 422.5,142.5C 424.557,129.828 426.723,117.161 429,104.5C 430.019,103.313 431.186,102.313 432.5,101.5C 433.107,101.624 433.44,101.957 433.5,102.5 Z"/></g>
<g><path style="opacity:0.906" fill="#174680" d="M 59.5,124.5 C 58.7354,124.077 57.9021,123.743 57,123.5C 54.3612,124.994 51.5279,125.661 48.5,125.5C 45.3948,117.492 41.7281,109.825 37.5,102.5C 35.677,103.747 33.677,104.414 31.5,104.5C 33.1153,101.55 35.1153,98.8838 37.5,96.5C 40.354,96.0761 43.0207,95.0761 45.5,93.5C 50.448,103.728 55.1146,114.061 59.5,124.5 Z"/></g>
<g><path style="opacity:1" fill="#c2a11e" d="M 346.5,101.5 C 344.864,102.749 343.697,104.416 343,106.5C 341.333,110.833 339.667,115.167 338,119.5C 336.905,118.307 336.072,116.973 335.5,115.5C 336.376,115.631 337.043,115.298 337.5,114.5C 338.803,108.553 341.636,103.553 346,99.5C 346.464,100.094 346.631,100.761 346.5,101.5 Z"/></g>
<g><path style="opacity:1" fill="#8b874c" d="M 195.5,106.5 C 194.833,117.5 194.167,128.5 193.5,139.5C 193.5,128.5 193.5,117.5 193.5,106.5C 194.167,105.167 194.833,105.167 195.5,106.5 Z"/></g>
<g><path style="opacity:1" fill="#638689" d="M 433.5,102.5 C 433.5,108.167 433.5,113.833 433.5,119.5C 432.833,115.833 432.167,112.167 431.5,108.5C 431.259,106.102 431.926,104.102 433.5,102.5 Z"/></g>
<g><path style="opacity:1" fill="#c19d18" d="M 93.5,115.5 C 97.1382,128.719 100.472,142.053 103.5,155.5C 103.281,157.915 101.948,158.915 99.5,158.5C 96.1721,145.537 92.8388,132.537 89.5,119.5C 89.9164,117.285 91.2497,115.951 93.5,115.5 Z"/></g>
<g><path style="opacity:0.899" fill="#21386e" d="M 230.5,132.5 C 242.5,138.833 254.5,145.167 266.5,151.5C 263.668,154.082 260.335,155.249 256.5,155C 238.413,146.457 220.413,137.623 202.5,128.5C 201.597,125.609 201.264,122.609 201.5,119.5C 211.274,123.553 220.941,127.886 230.5,132.5 Z"/></g>
<g><path style="opacity:0.858" fill="#20376c" d="M 323.5,132.5 C 324.649,132.209 325.316,131.376 325.5,130C 325.9,127.1 326.566,124.267 327.5,121.5C 330.752,126.334 333.752,131.334 336.5,136.5C 338.333,133.5 340.167,130.5 342,127.5C 343.029,133.123 343.529,138.79 343.5,144.5C 357.146,146.941 370.813,149.274 384.5,151.5C 381.766,154.201 378.432,155.867 374.5,156.5C 361.127,154.526 347.961,151.859 335,148.5C 334.503,145.854 334.336,143.187 334.5,140.5C 332.184,141.36 329.851,141.86 327.5,142C 326.292,139.75 324.959,137.583 323.5,135.5C 321.278,136.778 318.944,137.778 316.5,138.5C 305.525,136.527 294.525,134.694 283.5,133C 282.422,132.326 281.755,131.326 281.5,130C 282.007,126.787 282.674,123.62 283.5,120.5C 283.167,120.167 282.833,119.833 282.5,119.5C 277.817,122.172 272.817,123.839 267.5,124.5C 266.549,123.081 266.216,121.415 266.5,119.5C 275.453,118.349 283.953,115.683 292,111.5C 291.836,117.168 291.336,122.835 290.5,128.5C 301.474,130.02 312.474,131.353 323.5,132.5 Z"/></g>
<g><path style="opacity:0.955" fill="#1d2d60" d="M 59.5,124.5 C 66.8958,140.958 74.5625,157.292 82.5,173.5C 88.0097,171.668 93.343,169.668 98.5,167.5C 103.415,166.117 108.415,165.117 113.5,164.5C 111.287,166.86 108.621,168.694 105.5,170C 94.7343,173.2 84.0677,176.7 73.5,180.5C 64.8951,162.29 56.5617,143.957 48.5,125.5C 51.5279,125.661 54.3612,124.994 57,123.5C 57.9021,123.743 58.7354,124.077 59.5,124.5 Z"/></g>
<g><path style="opacity:0.952" fill="#1d3063" d="M 202.5,146.5 C 199.68,149.081 196.346,150.914 192.5,152C 182.148,153.455 171.814,154.955 161.5,156.5C 161.436,152.78 160.936,149.114 160,145.5C 148.427,154.822 135.593,156.988 121.5,152C 117.386,149.716 113.72,146.883 110.5,143.5C 107.786,136.149 105.452,128.649 103.5,121C 104.553,117.609 106.719,115.109 110,113.5C 109.957,124.039 113.457,133.205 120.5,141C 137.233,151.752 153.233,150.585 168.5,137.5C 170.281,141.616 170.947,145.949 170.5,150.5C 181.139,148.949 191.806,147.616 202.5,146.5 Z"/></g>
<g><path style="opacity:0.903" fill="#30236f" d="M 399.5,135.5 C 401.308,136.918 401.975,138.918 401.5,141.5C 400.686,143.631 400.186,145.964 400,148.5C 397.176,149.818 394.676,151.485 392.5,153.5C 392.034,149.363 392.034,145.029 392.5,140.5C 394.733,138.652 397.066,136.985 399.5,135.5 Z"/></g>
<g><path style="opacity:0.928" fill="#1e2d61" d="M 397.5,135.5 C 398.167,135.5 398.833,135.5 399.5,135.5C 397.066,136.985 394.733,138.652 392.5,140.5C 389.598,141.578 386.598,142.244 383.5,142.5C 382.566,141.432 382.232,140.099 382.5,138.5C 387.894,138.876 392.894,137.876 397.5,135.5 Z"/></g>
<g><path style="opacity:1" fill="#c6a214" d="M 440.5,158.5 C 442.401,158.433 444.234,158.767 446,159.5C 447.695,157.768 449.028,155.768 450,153.5C 459.004,126.656 467.504,99.6562 475.5,72.5C 469.5,71.1667 463.5,69.8333 457.5,68.5C 457.5,67.1667 457.5,65.8333 457.5,64.5C 464.906,65.401 472.239,66.7344 479.5,68.5C 470.182,98.9541 460.349,129.287 450,159.5C 446.603,160.848 443.436,160.514 440.5,158.5 Z"/></g>
<g><path style="opacity:0.868" fill="#21386f" d="M 401.5,141.5 C 401.192,143.924 401.526,146.257 402.5,148.5C 410.411,150.156 418.411,151.323 426.5,152C 427.136,155.79 427.803,159.623 428.5,163.5C 437.388,166.128 446.054,169.128 454.5,172.5C 452.048,174.474 449.215,175.808 446,176.5C 436.906,173.523 427.739,170.857 418.5,168.5C 418.823,164.774 418.489,161.107 417.5,157.5C 409.2,155.981 400.867,154.648 392.5,153.5C 394.676,151.485 397.176,149.818 400,148.5C 400.186,145.964 400.686,143.631 401.5,141.5 Z"/></g>
<g><path style="opacity:0.376" fill="#000000" d="M 468.5,148.5 C 475.497,147.666 478.664,150.666 478,157.5C 474.038,163.631 469.705,163.964 465,158.5C 463.756,154.191 464.923,150.858 468.5,148.5 Z"/></g>
</svg>
